<svg xmlns="http://www.w3.org/2000/svg" viewBox="0 0 64 64" width="64" height="64" role="img" aria-label="Logotipo PataChic">
  <defs>
    <linearGradient id="fundoLogo" x1="0" y1="0" x2="1" y2="1">
      <stop offset="0" stop-color="#FB923C"/>
      <stop offset="0.55" stop-color="#F97316"/>
      <stop offset="1" stop-color="#EA580C"/>
    </linearGradient>
  </defs>
  <rect x="2" y="2" width="60" height="60" rx="17" fill="url(#fundoLogo)"/>
  <g fill="#FFFFFF">
    <ellipse cx="20" cy="27" rx="5.6" ry="7" transform="rotate(-18 20 27)"/>
    <ellipse cx="32" cy="21.5" rx="5.6" ry="7"/>
    <ellipse cx="44" cy="27" rx="5.6" ry="7" transform="rotate(18 44 27)"/>
    <path d="M32 36.5c-6.8 0-12.3 5-12.3 10.4 0 3 2.4 5 5.2 5 2 0 2.9-1.1 7.1-1.1s5.1 1.1 7.1 1.1c2.8 0 5.2-2 5.2-5 0-5.4-5.5-10.4-12.3-10.4z"/>
  </g>
  <circle cx="49.5" cy="46.5" r="4.6" fill="#0F766E"/>
  <path d="M49.5 43.6l.9 2 2 .9-2 .9-.9 2-.9-2-2-.9 2-.9z" fill="#FFFFFF"/>
</svg>
